<?xml version="1.0" standalone="no"?>
<!DOCTYPE svg PUBLIC "-//W3C//DTD SVG 20010904//EN"
 "http://www.w3.org/TR/2001/REC-SVG-20010904/DTD/svg10.dtd">
<svg version="1.0" xmlns="http://www.w3.org/2000/svg"
 width="500.000000pt" height="500.000000pt" viewBox="0 0 500.000000 500.000000"
 preserveAspectRatio="xMidYMid meet">

<g transform="translate(0.000000,500.000000) scale(0.100000,-0.100000)"
fill="#000000" stroke="none">
<path d="M1627 3373 c5 -50 -4 -93 -66 -317 -39 -142 -71 -262 -71 -267 0 -5
10 -9 23 -9 20 0 27 19 96 275 41 151 77 275 80 275 4 0 40 -123 81 -273 l76
-272 213 -3 c178 -2 212 0 208 11 -3 8 -40 140 -82 293 -42 153 -81 294 -86
312 l-11 32 -233 0 -233 0 5 -57z"/>
<path d="M3385 3398 c9 -58 25 -359 25 -490 l0 -128 195 0 195 0 0 143 c0 141
15 413 25 475 l6 32 -226 0 -226 0 6 -32z"/>
<path d="M1326 2198 c-8 -29 -42 -154 -76 -278 -34 -124 -75 -258 -91 -298
-16 -41 -29 -75 -29 -78 0 -2 20 -4 44 -4 l43 0 6 63 c4 34 35 168 71 297 35
129 69 254 75 278 l12 42 312 -2 312 -3 73 -265 c41 -151 75 -296 79 -337 l6
-73 238 0 c132 0 239 2 239 4 0 2 -16 37 -35 77 -32 68 -68 187 -155 507 l-34
122 -537 0 -538 0 -15 -52z"/>
<path d="M3410 2098 c0 -156 -15 -453 -26 -520 l-6 -38 227 0 226 0 -6 33
c-11 66 -25 338 -25 505 l0 172 -195 0 -195 0 0 -152z"/>
</g>
</svg>
